<svg width="900" height="110" viewBox="0 0 900 110" xmlns="http://www.w3.org/2000/svg">
  <g stroke="#E63946" stroke-width="1.5" opacity="0.9" stroke-linecap="round">
    <line x1="450" y1="90" x2="398.8" y2="81" />
    <line x1="450" y1="90" x2="401.1" y2="72.2" />
    <line x1="450" y1="90" x2="405" y2="64" />
    <line x1="450" y1="90" x2="410.2" y2="56.6" />
    <line x1="450" y1="90" x2="416.6" y2="50.2" />
    <line x1="450" y1="90" x2="424" y2="45" />
    <line x1="450" y1="90" x2="432.2" y2="41.1" />
    <line x1="450" y1="90" x2="441" y2="38.8" />
    <line x1="450" y1="90" x2="450" y2="38" />
    <line x1="450" y1="90" x2="459" y2="38.8" />
    <line x1="450" y1="90" x2="467.8" y2="41.1" />
    <line x1="450" y1="90" x2="476" y2="45" />
    <line x1="450" y1="90" x2="483.4" y2="50.2" />
    <line x1="450" y1="90" x2="489.8" y2="56.6" />
    <line x1="450" y1="90" x2="495" y2="64" />
    <line x1="450" y1="90" x2="498.9" y2="72.2" />
    <line x1="450" y1="90" x2="501.2" y2="81" />
    <path d="M 406 90 A 44 44 0 0 1 494 90" fill="none" opacity="0.5" />
    <line x1="0" y1="100" x2="900" y2="100" opacity="0.7" />
    <line x1="0" y1="106" x2="900" y2="106" opacity="0.3" />
  </g>
</svg>